<svg width="16" height="16" viewBox="0 0 16 16" fill="none" xmlns="http://www.w3.org/2000/svg">
<path d="M12 4.77325C11.96 4.76659 11.9133 4.76659 11.8733 4.77325C10.9533 4.73992 10.22 3.98659 10.22 3.05325C10.22 2.09992 10.9866 1.33325 11.94 1.33325C12.8933 1.33325 13.66 2.10659 13.66 3.05325C13.6533 3.98659 12.92 4.73992 12 4.77325Z" stroke="#202020" stroke-width="1.5" stroke-linecap="round" stroke-linejoin="round"/>
<path d="M11.3133 9.62669C12.2266 9.78003 13.2333 9.62003 13.9399 9.14669C14.8799 8.52003 14.8799 7.49336 13.9399 6.86669C13.2266 6.39336 12.2066 6.23336 11.2933 6.39336" stroke="#202020" stroke-width="1.5" stroke-linecap="round" stroke-linejoin="round"/>
<path d="M3.98001 4.77325C4.02001 4.76659 4.06667 4.76659 4.10667 4.77325C5.02667 4.73992 5.76001 3.98659 5.76001 3.05325C5.76001 2.09992 4.99334 1.33325 4.04001 1.33325C3.08668 1.33325 2.32001 2.10659 2.32001 3.05325C2.32667 3.98659 3.06001 4.73992 3.98001 4.77325Z" stroke="#202020" stroke-width="1.5" stroke-linecap="round" stroke-linejoin="round"/>
<path d="M4.66669 9.62669C3.75335 9.78003 2.74669 9.62003 2.04002 9.14669C1.10002 8.52003 1.10002 7.49336 2.04002 6.86669C2.75336 6.39336 3.77335 6.23336 4.68669 6.39336" stroke="#202020" stroke-width="1.5" stroke-linecap="round" stroke-linejoin="round"/>
<path d="M7.99997 9.75324C7.95997 9.74657 7.9133 9.74657 7.8733 9.75324C6.9533 9.7199 6.21997 8.96657 6.21997 8.03323C6.21997 7.0799 6.98664 6.31323 7.93997 6.31323C8.8933 6.31323 9.65997 7.08657 9.65997 8.03323C9.6533 8.96657 8.91997 9.72657 7.99997 9.75324Z" stroke="#202020" stroke-width="1.5" stroke-linecap="round" stroke-linejoin="round"/>
<path d="M6.05998 11.8532C5.11998 12.4799 5.11998 13.5066 6.05998 14.1332C7.12665 14.8466 8.87331 14.8466 9.93998 14.1332C10.88 13.5066 10.88 12.4799 9.93998 11.8532C8.87998 11.1466 7.12665 11.1466 6.05998 11.8532Z" stroke="#202020" stroke-width="1.5" stroke-linecap="round" stroke-linejoin="round"/>
</svg>
