<svg width="16" height="16" viewBox="0 0 16 16" fill="none" xmlns="http://www.w3.org/2000/svg">
<path d="M14.4467 9.53325L14.18 12.8666C14.08 13.8866 14 14.6666 12.1933 14.6666H3.80665C1.99999 14.6666 1.91999 13.8866 1.81999 12.8666L1.55332 9.53325C1.49999 8.97992 1.67332 8.46659 1.98665 8.07325C1.99332 8.06659 1.99332 8.06659 1.99999 8.05992C2.36665 7.61325 2.91999 7.33325 3.53999 7.33325H12.46C13.08 7.33325 13.6267 7.61325 13.9867 8.04659C13.9933 8.05325 14 8.05992 14 8.06659C14.3267 8.45992 14.5067 8.97325 14.4467 9.53325Z" stroke="#202020" stroke-width="1.5" stroke-miterlimit="10"/>
<path d="M2.33337 7.61994V4.1866C2.33337 1.91994 2.90004 1.35327 5.16671 1.35327H6.01337C6.86004 1.35327 7.05337 1.6066 7.37337 2.03327L8.22004 3.1666C8.43337 3.4466 8.56004 3.61994 9.12671 3.61994H10.8267C13.0934 3.61994 13.66 4.1866 13.66 6.45327V7.6466" stroke="#202020" stroke-width="1.5" stroke-miterlimit="10" stroke-linecap="round" stroke-linejoin="round"/>
<path d="M6.28668 11.3333H9.71335" stroke="#202020" stroke-width="1.5" stroke-miterlimit="10" stroke-linecap="round" stroke-linejoin="round"/>
</svg>
