<svg width="16" height="16" viewBox="0 0 16 16" fill="none" xmlns="http://www.w3.org/2000/svg">
<path d="M8 1.33325V5.99992L9.33333 4.66659" stroke="#202020" stroke-width="1.5" stroke-linecap="round" stroke-linejoin="round"/>
<path d="M8.00002 6.00008L6.66669 4.66675" stroke="#202020" stroke-width="1.5" stroke-linecap="round" stroke-linejoin="round"/>
<path d="M1.32001 8.66675H4.26001C4.51334 8.66675 4.74001 8.80675 4.85334 9.03341L5.63334 10.5934C5.86001 11.0467 6.32001 11.3334 6.82667 11.3334H9.18001C9.68667 11.3334 10.1467 11.0467 10.3733 10.5934L11.1533 9.03341C11.2667 8.80675 11.5 8.66675 11.7467 8.66675H14.6533" stroke="#202020" stroke-width="1.5" stroke-linecap="round" stroke-linejoin="round"/>
<path d="M4.66665 2.75342C2.30665 3.10008 1.33331 4.48675 1.33331 7.33342V10.0001C1.33331 13.3334 2.66665 14.6668 5.99998 14.6668H9.99998C13.3333 14.6668 14.6666 13.3334 14.6666 10.0001V7.33342C14.6666 4.48675 13.6933 3.10008 11.3333 2.75342" stroke="#202020" stroke-width="1.5" stroke-linecap="round" stroke-linejoin="round"/>
</svg>
